<svg xmlns="http://www.w3.org/2000/svg" width="120" height="120" viewBox="-10 -10 140 140">
  <path d="
    M 10 50
    C 10 25, 25 15, 35 15
    C 45 15, 50 25, 50 40
    C 50 25, 55 15, 65 15
    C 75 15, 80 25, 80 40
    C 80 25, 85 15, 95 15
    C 105 15, 110 25, 110 50
    L 110 100
    C 110 125, 95 135, 85 135
    C 75 135, 70 125, 70 110
    C 70 125, 65 135, 55 135
    C 45 135, 40 125, 40 110
    C 40 125, 35 135, 25 135
    C 15 135, 10 125, 10 100
    Z
  " fill="#2D2A6E" transform="translate(0, -15)"/>
</svg>