<svg xmlns="http://www.w3.org/2000/svg" width="120" height="120" viewBox="-15 -10 140 140">
  <path d="
    M 0 0 L 110 0
    L 110 15
    C 110 60, 80 90, 57 90
    L 55 90
    L 55 120
    L 0 120
    L 0 105
    C 0 60, 30 30, 53 30
    L 55 30
    L 55 0
    Z
  " fill="#C85A3A"/>
  <path d="
    M 0 0 L 110 0
    L 110 15
    C 110 60, 80 90, 57 90
    L 55 90
    L 55 120
    L 0 120
    L 0 105
    C 0 60, 30 30, 53 30
    L 55 30
    L 55 0
    Z
  " fill="#C85A3A" transform="rotate(90, 55, 60)"/>
</svg>